PathFileType	4	(X/Y/Z)	output_15markers.trc
DataRate	CameraRate	NumFrames	NumMarkers	Units	OrigDataRate	OrigDataStartFrame	OrigNumFrames
30	30	21	15	m	30	1	1089
Frame#	Time	Hip			RHip			RKnee			RAnkle			LHip			LKnee			LAnkle			Neck			Head			RShoulder			RElbow			RWrist			LShoulder			LElbow			LWrist
		X1	Y1	Z1	X2	Y2	Z2	X3	Y3	Z3	X4	Y4	Z4	X5	Y5	Z5	X6	Y6	Z6	X7	Y7	Z7	X8	Y8	Z8	X9	Y9	Z9	X10	Y10	Z10	X11	Y11	Z11	X12	Y12	Z12	X13	Y13	Z13	X14	Y14	Z14	X15	Y15	Z15

1	0.000000	-0.000027	0.815971	-0.000164	0.068302	0.806681	-0.017618	0.087908	0.430314	0.003126	0.175450	0.000000	0.102426	-0.068302	0.825295	0.017614	-0.015061	0.427018	0.051563	0.034344	0.009780	0.158806	0.007146	1.402499	-0.162619	0.032766	1.464664	-0.186343	0.069225	1.273561	0.024053	0.192808	1.041684	0.091956	0.229363	1.061418	-0.044378	-0.067569	1.265833	0.021375	-0.070967	0.995369	0.057421	-0.024119	0.779601	0.035891
2	0.033333	-0.000028	0.814419	-0.000164	0.068015	0.804424	-0.018204	0.086074	0.427532	0.005772	0.177198	0.000000	0.099249	-0.068014	0.824445	0.018199	-0.016607	0.429898	0.049474	0.027833	0.008826	0.158213	0.004840	1.400835	-0.161279	0.032900	1.462884	-0.185529	0.070350	1.272753	0.016547	0.193301	1.039549	0.079659	0.216786	1.064302	-0.052779	-0.066523	1.263619	0.023902	-0.067679	0.994203	0.062191	-0.021166	0.779474	0.032386
3	0.066667	-0.000028	0.814629	-0.000163	0.065517	0.804830	-0.017149	0.084980	0.429820	0.007114	0.173365	0.000000	0.100472	-0.065517	0.824460	0.017145	-0.013370	0.428887	0.054058	0.034429	0.010628	0.158174	0.003767	1.401385	-0.159918	0.030081	1.464166	-0.189657	0.065416	1.273428	0.020177	0.189678	1.041105	0.079589	0.219209	1.061119	-0.044817	-0.065977	1.264295	0.022832	-0.067829	0.993717	0.060628	-0.021048	0.779006	0.035190
4	0.100000	-0.000027	0.816460	-0.000164	0.068156	0.806380	-0.016780	0.088448	0.428361	0.004380	0.180358	0.000000	0.098159	-0.068156	0.826572	0.016777	-0.015699	0.429627	0.049910	0.030135	0.008659	0.155512	0.006384	1.402221	-0.163855	0.032321	1.464395	-0.189274	0.069465	1.274401	0.020674	0.196159	1.045774	0.086240	0.227286	1.054521	-0.048167	-0.068132	1.265176	0.019846	-0.070321	0.996223	0.056353	-0.022721	0.778489	0.033834
5	0.133333	-0.000027	0.814121	-0.000163	0.067852	0.804264	-0.018135	0.085757	0.426898	0.005514	0.177591	0.000000	0.098999	-0.067851	0.824009	0.018132	-0.018317	0.429261	0.049609	0.024848	0.008539	0.157391	0.003833	1.399994	-0.161667	0.031188	1.462821	-0.186641	0.070738	1.272591	0.015558	0.196572	1.041504	0.076959	0.218928	1.063101	-0.056993	-0.066006	1.265324	0.022452	-0.064528	0.996818	0.058384	-0.015969	0.781766	0.033042
6	0.166667	-0.000027	0.815780	-0.000164	0.068371	0.805994	-0.017184	0.088474	0.428539	0.006068	0.179093	0.000000	0.104445	-0.068370	0.825600	0.017180	-0.014921	0.428615	0.053629	0.030020	0.007716	0.159693	0.006040	1.400866	-0.160127	0.031681	1.463248	-0.184105	0.069309	1.273615	0.023505	0.196890	1.046104	0.088276	0.228986	1.053467	-0.048430	-0.068083	1.264029	0.024157	-0.069593	0.994727	0.060549	-0.022702	0.776872	0.037482
7	0.200000	-0.000028	0.819019	-0.000164	0.068511	0.809275	-0.017355	0.089605	0.432205	0.006010	0.175770	0.000000	0.102089	-0.068509	0.828794	0.017350	-0.014621	0.431314	0.053254	0.028606	0.008853	0.159516	0.006850	1.402881	-0.160354	0.032607	1.464575	-0.184368	0.069426	1.274424	0.020977	0.192445	1.043095	0.085838	0.221096	1.056100	-0.049170	-0.067472	1.265224	0.023445	-0.070578	0.994977	0.059006	-0.024098	0.778848	0.036383
8	0.233333	-0.000027	0.816023	-0.000164	0.067739	0.805986	-0.016817	0.087296	0.428137	0.004752	0.178111	0.000000	0.098137	-0.067739	0.826091	0.016814	-0.015988	0.429733	0.049261	0.027901	0.008654	0.152920	0.005093	1.401842	-0.164547	0.030679	1.463942	-0.192449	0.070021	1.273878	0.016519	0.198656	1.045227	0.077951	0.223556	1.059208	-0.058753	-0.067243	1.266330	0.017993	-0.070763	0.996782	0.055455	-0.024928	0.776809	0.032941
9	0.266667	-0.000027	0.817118	-0.000164	0.068231	0.807412	-0.017343	0.089039	0.426958	0.006500	0.181193	0.000000	0.100465	-0.068230	0.826857	0.017339	-0.013490	0.428457	0.052802	0.031117	0.009296	0.159952	0.004301	1.403008	-0.161144	0.030015	1.465518	-0.187463	0.068971	1.275396	0.018748	0.197174	1.047363	0.082902	0.221881	1.063504	-0.056889	-0.068081	1.266226	0.023016	-0.069481	0.997156	0.060297	-0.022699	0.779257	0.035777
10	0.300000	-0.000027	0.812238	-0.000164	0.066580	0.802028	-0.018340	0.084447	0.423275	0.005737	0.183302	0.000000	0.096539	-0.066580	0.822477	0.018336	-0.016913	0.426995	0.049633	0.028462	0.009807	0.155342	0.001898	1.400132	-0.165854	0.029628	1.462976	-0.192292	0.069439	1.272641	0.010582	0.192833	1.039748	0.075550	0.219135	1.059396	-0.056928	-0.065068	1.265857	0.018448	-0.062699	0.997702	0.055045	-0.013374	0.782995	0.034833
11	0.333333	-0.000027	0.818091	-0.000163	0.068225	0.807907	-0.016554	0.085370	0.429662	0.005475	0.174212	0.000000	0.096299	-0.068225	0.828305	0.016551	-0.015453	0.433476	0.045657	0.027120	0.011838	0.152716	0.004608	1.404207	-0.163254	0.031089	1.466250	-0.191281	0.070772	1.275998	0.013068	0.195129	1.044539	0.076968	0.218794	1.054426	-0.054185	-0.067392	1.267661	0.017230	-0.071171	0.997661	0.055277	-0.022968	0.781170	0.031926
12	0.366667	-0.000027	0.816678	-0.000164	0.066298	0.806289	-0.017445	0.084728	0.427820	0.005940	0.177069	0.000000	0.093915	-0.066298	0.827095	0.017442	-0.015450	0.432350	0.045559	0.026755	0.010480	0.154032	0.004756	1.402628	-0.164174	0.033525	1.462757	-0.192657	0.068826	1.274464	0.012050	0.190316	1.039873	0.073679	0.212744	1.055091	-0.054670	-0.064910	1.267263	0.017768	-0.068149	0.996923	0.052873	-0.021497	0.780417	0.028422
13	0.400000	-0.000027	0.813815	-0.000164	0.068537	0.804169	-0.016630	0.087615	0.424121	0.005320	0.184799	0.000000	0.095481	-0.068537	0.823489	0.016627	-0.015574	0.427915	0.048423	0.029157	0.010043	0.155807	0.002814	1.401407	-0.168470	0.029306	1.463411	-0.194085	0.071061	1.273655	0.011662	0.197693	1.042488	0.075655	0.221439	1.058618	-0.061618	-0.068468	1.265540	0.015849	-0.070293	0.995362	0.052435	-0.020665	0.780318	0.033062
14	0.433333	-0.000027	0.813223	-0.000165	0.066199	0.803321	-0.019007	0.082706	0.423913	0.005638	0.180914	0.000000	0.095144	-0.066198	0.823154	0.019002	-0.014601	0.428142	0.050573	0.034477	0.012355	0.157489	0.002705	1.401759	-0.165315	0.031239	1.463163	-0.192042	0.069483	1.273344	0.010020	0.192422	1.038003	0.071210	0.213681	1.061648	-0.058160	-0.065424	1.267069	0.018717	-0.067015	0.996688	0.055932	-0.020090	0.780862	0.029992
15	0.466667	-0.000027	0.816713	-0.000164	0.068175	0.806615	-0.016827	0.087592	0.427744	0.005223	0.178831	0.000000	0.098388	-0.068175	0.826842	0.016824	-0.015236	0.429683	0.048659	0.029568	0.010052	0.153291	0.003631	1.403431	-0.167364	0.029703	1.465602	-0.193695	0.070085	1.274868	0.011605	0.195080	1.043547	0.073791	0.217289	1.061049	-0.054387	-0.067792	1.267452	0.016669	-0.070672	0.998131	0.055661	-0.024533	0.779494	0.032385
16	0.500000	-0.000027	0.815612	-0.000166	0.067348	0.804492	-0.018376	0.084791	0.425957	0.003697	0.178665	0.000000	0.096914	-0.067347	0.826760	0.018372	-0.017208	0.431646	0.046555	0.026214	0.010414	0.153129	0.005710	1.400604	-0.171030	0.033390	1.460354	-0.197662	0.070631	1.275101	0.009665	0.191435	1.039287	0.071218	0.217492	1.052168	-0.059916	-0.065924	1.266299	0.015812	-0.069096	0.997122	0.053022	-0.025237	0.777098	0.030500
17	0.533333	-0.000027	0.815952	-0.000166	0.068399	0.805010	-0.016811	0.086393	0.425834	0.002094	0.177905	0.000000	0.094381	-0.068397	0.826921	0.016806	-0.017499	0.432086	0.043919	0.023905	0.010614	0.153985	0.006134	1.401177	-0.172510	0.032638	1.460773	-0.199699	0.072095	1.275940	0.007551	0.196664	1.041494	0.068392	0.215842	1.067547	-0.067287	-0.066221	1.266858	0.013541	-0.069126	0.997766	0.052096	-0.025572	0.777540	0.029414
18	0.566667	-0.000026	0.816722	-0.000164	0.067709	0.806335	-0.018200	0.086299	0.426456	0.006624	0.175987	0.000000	0.099524	-0.067707	0.827136	0.018196	-0.016345	0.430656	0.048541	0.026436	0.010328	0.157883	0.003500	1.399690	-0.168441	0.028642	1.462068	-0.197805	0.069622	1.277393	0.009078	0.193386	1.043398	0.071218	0.210868	1.071747	-0.062550	-0.066215	1.267591	0.017492	-0.068125	0.997043	0.054899	-0.023824	0.779113	0.031356
19	0.600000	-0.000027	0.812605	-0.000164	0.067464	0.802795	-0.017153	0.082759	0.423601	0.005538	0.179158	0.000000	0.094708	-0.067463	0.822444	0.017149	-0.017057	0.429575	0.046726	0.024633	0.011249	0.153675	0.002481	1.399943	-0.171066	0.028350	1.461917	-0.198087	0.071523	1.274794	0.005423	0.198665	1.042001	0.064019	0.216661	1.060645	-0.064515	-0.066786	1.267277	0.012409	-0.066819	0.998732	0.052685	-0.017838	0.782558	0.031916
20	0.633333	-0.000027	0.817138	-0.000164	0.068702	0.806675	-0.016719	0.086081	0.427111	0.005647	0.176184	0.000000	0.097379	-0.068702	0.827630	0.016716	-0.015005	0.431433	0.048543	0.028523	0.010966	0.154138	0.003781	1.401679	-0.172375	0.028734	1.463830	-0.199704	0.070830	1.276719	0.008045	0.194570	1.045218	0.070698	0.215135	1.058419	-0.056348	-0.068718	1.267800	0.014202	-0.072481	0.997850	0.053363	-0.025357	0.781582	0.031314
21	0.666667	-0.000027	0.818904	-0.000165	0.066941	0.808008	-0.018233	0.082822	0.428702	0.004363	0.172808	0.000000	0.094507	-0.066940	0.829829	0.018229	-0.014517	0.434586	0.046818	0.029277	0.012206	0.152788	0.007244	1.402795	-0.174418	0.034066	1.462143	-0.199454	0.070915	1.277420	0.009146	0.192108	1.042587	0.071822	0.214466	1.055916	-0.056931	-0.066278	1.268002	0.015100	-0.071774	0.996928	0.052526	-0.027924	0.779129	0.030819
